<?xml version="1.0" standalone="no"?><!DOCTYPE svg PUBLIC "-//W3C//DTD SVG 1.1//EN" "http://www.w3.org/Graphics/SVG/1.1/DTD/svg11.dtd"><svg width="32" height="32" viewBox="0 0 32 32" version="1.1" xmlns="http://www.w3.org/2000/svg" xmlns:xlink="http://www.w3.org/1999/xlink"><defs><style type="text/css"><![CDATA[
@font-face { font-family: ifont; src: url("//at.alicdn.com/t/font_1442373896_4754455.eot?#iefix") format("embedded-opentype"), url("//at.alicdn.com/t/font_1442373896_4754455.woff") format("woff"), url("//at.alicdn.com/t/font_1442373896_4754455.ttf") format("truetype"), url("//at.alicdn.com/t/font_1442373896_4754455.svg#ifont") format("svg"); }

]]></style></defs><g class="transform-group"><g transform="scale(0.03125, 0.03125)"><path d="M812.128128 64C710.87648 161.895744 601.76336 205.537888 537.442112 220.2976 473.151904 235.002912 295.833376 296.682976 239.311456 447.309728 145.859168 762.841312 293.735936 960 293.735936 960 195.917888 604.221024 354.079872 530.678816 465.733216 467.755808 485.11504 457.105536 502.212992 447.11552 518.308864 437.389664 517.695168 437.816896 517.174688 438.197568 516.514368 438.671424 308.169376 586.34624 309.79296 670.057088 308.604416 729.484352 307.773216 771.61168 322.727136 771.308736 341.479744 760.619584 350.677376 756.984032 524.181664 688.57664 583.17392 651.607456 583.17392 651.607456 583.236064 651.607456 583.25936 651.545312 617.633952 633.134528 656.879264 607.382688 692.791968 572.184672 847.706784 413.05168 812.128128 64 812.128128 64L812.128128 64Z" fill="#11cd6e"></path></g></g></svg>