<?xml version="1.0" standalone="no"?><!DOCTYPE svg PUBLIC "-//W3C//DTD SVG 1.1//EN" "http://www.w3.org/Graphics/SVG/1.1/DTD/svg11.dtd"><svg t="1486892195922" class="icon" style="" viewBox="0 0 1024 1024" version="1.1" xmlns="http://www.w3.org/2000/svg" p-id="5213" xmlns:xlink="http://www.w3.org/1999/xlink" width="32" height="32"><defs><style type="text/css"></style></defs><path d="M504.832 1024l-270.336-249.344 114.176-473.088 282.624 0 158.208 441.856L504.832 1024zM339.456 742.912l163.328 150.528 177.664-175.104-115.2-322.56L422.912 395.776 339.456 742.912z" p-id="5214" fill="#d81e06"></path><path d="M320 0 640.512 0 568.32 204.288 404.992 204.288Z" p-id="5215" fill="#d81e06"></path><path d="M601.545318 353.683046l40.226816 85.182874-282.862694 133.579264-40.226816-85.182874 282.862694-133.579264Z" p-id="5216" fill="#d81e06"></path><path d="M659.926067 493.134746l37.381734 86.473523-396.650291 171.46839-37.381734-86.473523 396.650291-171.46839Z" p-id="5217" fill="#d81e06"></path><path d="M697.558067 635.74441l37.391155 86.473523-362.812826 156.880282-37.391155-86.473523 362.812826-156.880282Z" p-id="5218" fill="#d81e06"></path></svg>